<?xml version="1.0" encoding="UTF-8"?>
<svg xmlns="http://www.w3.org/2000/svg" viewBox="0 0 419.64 112.24">
  <defs>
    <style>
      .cls-1 {
        fill: #f05423;
      }

      .cls-2 {
        fill: #838383;
      }

      .cls-3 {
        fill: #ef5723;
      }

      .cls-4 {
        fill: #72abb8;
      }
    </style>
  </defs>
  <g id="Logotype">
    <path class="cls-1" d="M132.85,38.3c5.09,0,8.94,1.05,11.57,3.14v8.41h-.46c-2.16-1.4-5.27-2.46-9.32-3.16-2.08.42-3.12.89-3.12,1.4,0,.98,2.67,2.03,8,3.14,5.33,2.8,7.99,6.53,7.99,11.18l-.43,1.06h.43c0,3.28-2.96,6.2-8.89,8.74v.34h.89l-.44.34.44.36v.7h-10.22l-.46-.36-.44.36-2.22-.36h-1.33v-.7h1.33l3.55-.68v-.7c-4.73-1.11-7.1-2.39-7.1-3.84l.43-.36v-2.1l-.43-1.4.43-1.4-.43-.34.43-.34v-.36l-.43-1.4h.43c4.38,2.09,7.64,3.14,9.78,3.14h1.79c1.06,0,1.95-.35,2.66-1.04,0-1.03-3.26-2.43-9.78-4.2-3.85-2.35-5.77-5.38-5.77-9.08v-3.14c2.3-4.9,6.01-7.34,11.11-7.34ZM136.86,71.85l.89.7.87-1.04-1.76.34Z"/>
    <path class="cls-1" d="M150.02,72.23h-.58v-15.22h.05l.53,15.22ZM170.53,41.97h-.05v-.05l.24-.31h-.27v-.1l.22-.05v-.05l-.1-.1-.1.1v-.1l.05-.31-.05-.05h-.02l.17-.27-.05-.15h.1l-.1-.12v-.05h.1v-.05l-.05-.05.05-.05v-.05l-.05-.17.05-.19v-.05l-.05-.05.05-.05v-.22l-.05-.05v-.05h.05l-.05-.05v-.02l.05-.19-.05-.05v-.05l.05-.05-.05-.22v-.41l5.1.05v.05c0,.55.03.82.1.82l-.05.05.05.22v.22c.08,0,.12.03.12.1l-.05.05.15.05h.05v-.05h-.1v-.05l.19-.14c0,.26-.08.39-.24.39l.05.02v.05l-.05.05h.1l-.1.27h.05c.06,0,.1-.07.1-.22h.05v.19h.05l.07-.1-.07-.19.05-.12.02.05h.05v-.05l-.05-.05h-.02l-.05.05v-.1h.12l-.05-.05v-.05l.05-.05h.1l-.05.24.05.12-.1.1.1.1.05-.05h.15v.1l-.05.05v.02h.05c.08-.06.12-.15.12-.27h.05c.02.13.06.19.15.19l-.1-.29h-.05v-.07h.05c.06,0,.1.04.1.12h.05l.12-.07.05.12-.05.05v.05l.05.05v.05c-.15.02-.22.06-.22.12l.12.05c.02-.11.06-.17.15-.17h.1c0,.08.03.12.1.12v-.07h.07l.05.22h.05v-.19h.05c0,.16.06.26.19.29.11-.02.17-.06.17-.15h.14v.1h-.1v.36h-.05c0-.15-.03-.22-.1-.22l-.07.07.07.1v.1h-.07v-.1l-.1-.1h-.15v.1h-.05c0,.13.03.19.1.19l.05-.05h.05v.05l.22-.1c0,.06.09.1.27.1l.1.07v.19h.05l.1-.1-.1-.14.14-.02v.07h.05l.12-.05v.05c0,.19.05.29.15.29,0-.13.03-.19.1-.19v.05l-.19.31.14-.1.05.05h.07l.1-.36h.05v.1c.1,0,.14.03.14.1l-.1.12v.05h.05v-.07h.05l.05.02h.02v-.07l-.02-.24.17.24-.05.12.05-.05h.1l-.05.15-.22-.1-.05.05v.1l.07.1v-.15c.13.08.19.22.19.41h.05v-.22l-.05-.05h-.05c.05-.13.1-.19.14-.19h.05v.1h-.1v.05c.05.11.1.17.15.17l.07-.07.1.07v.1l-.1.1-.05-.15h-.07v.15l.05.15h-.15v.02l.15.05-.1.29h.05c.08,0,.12-.12.12-.36.06,0,.1.04.1.12l-.05.05v.05l.05.15-.05.02.05.05h-.05l-.17-.05-.05.05v.1h.05l.12-.1.14.36-.05.05h.1l-.05.05v.1l.05.36-.05.31.05.15c-.08,0-.13.06-.14.17v.05h.05c0-.08.03-.12.1-.12l-.05.39c.02.26.05.39.1.39l-.1.12.05.05v.05l-.05.22.05-.05h.05l-.05.24v.05l.05.05-.05.12.05.05v.05l-.05.05.05.22v.05l-.05.24h.05l-.1.36.05.12-.05.05v.05l.1.19c-.06.13-.1.37-.1.72v.22c-.14,0-.22.03-.22.1h.02l.14-.05.05.05v.15l-.05.17.1.36-.1.27h-.05l.1.14v.15h-.1l.05-.05-.05-.14h-.05v.1h-.05l.05.15v.12h-.05c0-.11-.02-.17-.07-.17l.05-.24-.1-.07h-.05v.07l.05.05v.05l-.05.15h.05l.22.36.05-.05.05.17c-.02.13-.06.19-.14.19v.15h.14v.07l-.05.05.05.15v.17h-.05v-.17h-.05v.1h-.05v-.15h-.07v.05l.17.36-.05-.05h-.05v.1l.1.12-.05.41h.1v.1l-.05.05.05.05v.15l-.05.02.05.05v.05l-.05.05v.05l.1.56-.05.17.05.05h-.05l.05.05-.1.36.1.15-.05.02v.19l.05.05-.05.05v.05l.05.05-.05.02v.1l.05.46c-.02.21-.05.31-.1.31l.05.05v.19l-.05.02v.05h.1v.05c0,.21-.03.31-.1.31l.05.05v.05l-.05.36.05.05v.05l-.05.05v.05l.05.12h-.05l-.1.1h.1l-.05.15.05.05v.05l-.05.17-.05-.05h-.05l-.02.05v.05l.02.05-.02.14-.34-.24-.05.05v.05l-.02-.05h-.24v.1l.05-.05h.1v.05c0,.08-.08.12-.24.12v.15l.05-.05h.14c.02.13.06.19.15.19v-.05l-.05-.05h.12l.05.22h-.05l-.05.05h-.02c0-.06-.06-.1-.19-.12l-.17.07-.24-.07-.05.02.15.24-.05.27.05.05v.05l-.05.15v.02h.05l.05-.27c.06,0,.1.05.1.14l-.1.17h.05l.07-.07v.12l-.02.05v.05h.07c.03-.14.08-.22.14-.22v.07h.05l-.05.05v.05l.05.14h.1l-.05-.05v-.19l.12-.05-.05.19.05.27h.05c0-.08.06-.15.19-.22v.1l-.05.05v.02l.05.05h.05l.07-.07v.17h.05l.05-.05h.05v.1h-.1l-.05.17.05.14h.05v-.1h.05l.05.14-.05.05v.05l.05.41-.05.17h.05l-.05.05.05.31v.15h-.1v.1h.1v.53l.05.31h-.05l.05.05v.05l-.05.19.05.05-.05.22.05.22-.05.29.05.22-.05.05h.05l-.05.05v.31l.05.05-.1.17.05.19-.05.05v.05l.05.05h-.05l.05.05v.07l-.05.24h.05l-.05.05v.17l.05.27-.05.15.05.05h-.1v.1l.05.05v.02h-.05l.1.24h-.05l.05.05v.05l-.1.07.1.15-.05.05.05.22v.24l-.05.17.05.05v.05l-.05.51h.05l-.05.05v.05l.05.27-.05.12.05.15-.05.05.05.22v.29l-.05.05v.02h.05l-.1.34.05.02v.51l.05.27-.05.19.05.05-.05.05h.05l-.05.05v.31l.05.05v.05h-.1v.02h.1l-.05.05v.1l.05.19-.05.05v.02l.05.19-.05.17h.05c-.02.13-.06.19-.14.19l.05.05v.05l-.36.1-.15-.05-.12.05v-.05l-.05.05h-.19l-.02-.05-.05.05h-.31l-.05-.05-.05.05h-.19l-.05-.05h-.05v.05l.05.02h-.05l-.27-.02-.05.02h-.05l-.17-.02h-.05v.07h-.05v-.07h-.05l-.05.02h-.05l-.02-.02h-.05l-.36.02-.05-.02h-.05l-.27.07-.05-.05v-.02l-.05.02h-.19l-.17-.02-.36.07-.05-.05h-.24l-.02.05h-.05v-.05l-.05.05h-.05l-.05-.05h-.05l-.05.05h-.05l-.41-.05-.02.05-.05-.05h-.05l-.05.05-.24-.05h-.07l-.05.05h-.05l-.05-.05v-.02l-.17.07-.05-.05h-.05l-.19.05-.05-.05-.12.05-.24-.05-.05.05v-.05l-.02.05h-.05l-.24-.05-.05.05h-.05l-.17-.05-.05.05-.27-.07-.15.07c-.11,0-.28-.18-.51-.53l-.94-1.42c-.19-.19-.65-.81-1.38-1.86l-1.57-2.27c-.43-.52-.77-1-1.01-1.45-.1,0-.23-.17-.41-.51h-.05l.05-.05v-.05c-.1-.02-.58-.65-1.45-1.91-.19-.29-.31-.43-.36-.43l-.56-.77-.72-1.01-1.86-2.42-.05.05c0-.1-.18-.37-.53-.82-.11-.24-.25-.36-.41-.36v.05l-.1.19.1.31h-.1v.05h.1l-.05.05v.07l.05.05-.05.05v.05l.05.24-.05.48v.6l-.05.22h.05l-.05.05v.19l.05.02-.1.24.05.05v.07l-.1.15.05.14h-.05l.14.41h-.05l.05.05v.22l-.05.05.05.05v.05l-.05.27.05.15h-.05c.06.18.1.56.1,1.16h.05l-.05.05v.56l.05.05-.05.05v.07l.05.05-.05.15.05.31-.05.05v.05l.05.27v.1l-.05.05.07.46-.02.05v.02l.02.05v.05l-.02.05.02.05h-.02l.02.05v.1l-.02.17.02.05v.05l-.02.05v.05l.02.27-.02.05v.05l.02.12-.02.24.02.05h-.02l.07.53h-.05l.05.05v.05l-.05.19.05.02-.05.05h.05l-.05.15.05.31h-.05l.05.05v.05l-.05.05v.05l.05.05h-.05l.05.02v.05l-.05.24.05.12-.05.15h.05l-.05.05v.05l.1.36-.05.17.05.05-.1.41.05.14h-.07v.05h.07v.17l.05.24h-.1v.05h.1l-.05.02v.14l.05.05-.05.05v.05l.05.53-.05.15.05.17v.24l-.05.17.1.19-.05.05v.05l.05.12-.1.1.05.19-.22.22-.05-.05h-.1v.1h-.05l-.05-.05h-.02l-.15.05v-.05l-.05.05h-.36l-.19-.05-.48.1-.19-.05v.05l-.12-.05-.14.05v-.05l-.15.05-.05-.05-.48.1-.24-.05h-.46l-.02.05-.05-.05h-.05l-.24.05-.05-.05v.05l-.12-.05-.05.05h-.05l-.05-.05h-.05l-.22.05-.41-.15-4.49-.15c0-1.56-.06-2.79-.19-3.67h.05l-.05-.05v-.05l.05-.05c-.06-.16-.1-.48-.1-.94v-.31l-.05-.05.05-.05v-.15l-.05-.05.05-.05-.05-.22v-.15l.05-.02-.05-.05v-.05l.05-.05-.05-.05v-1.18l.05-.15-.05-.22v-3.65l.05-.02-.05-.05v-1.18l-.05-.05v-.05h.05l-.05-.05v-.05l.05-.12h-.05l.05-.05v-.05l-.05-.05.05-.14-.07-.12.02-.05v-.24l-.02-.05.02-.02v-.14l-.02-.05.02-.05v-.05l-.02-.12h.02l-.02-.05v-.05l.02-.05-.02-.05v-.53l-.05-.05.05-.05v-.05l-.05-.05.05-.05v-.05l-.1-.36.05-.51-.05-.12.05-.05-.05-.46v-.41l.05-.05-.05-.05c.02-.18.05-.27.1-.27l-.05-.22v-.05l.05-.27-.05-.05.05-.24v-.36l.02-.05-.02-.05v-.07l.02-.24-.07-.36.05-.05-.1-.58.05-.05v-.05l-.1-.41.05-.17c0-.19-.03-.29-.1-.29l.1-.36-.1-.46v-.07h.05l-.05-.24v-.46l.05-.02-.05-.05v-.1h.05l-.05-.56v-.31l.05-.05-.1-.17.05-.05v-.05l-.05-.15h.05l-.05-.05v-.31l.05-.05-.05-.02v-.51l.05-.05c-.06-.16-.1-.48-.1-.97l-.05-.02.05-.15.1-1.4-.05-.05v-.05l.1-.29-.05-.02v-.05l.05-.05v-.05h-.05l.05-.15-.05-.12.05-.05h.05l-.05-.19.1-.89-.05-.15.05-.05-.05-.05.05-.05h.05l-.05-.12c0-.61.02-.92.07-.92l-.02-.05v-.31l.02-.22h-.02l.07-.19h-.07l.02-.14-.02-.27.02-.05v-.05l-.02-.17.17-.1h.27l.05.05c.13-.06.37-.1.72-.1h.34l.02.05c.13-.06.3-.1.51-.1h.27l.05.05h.05l.05-.05v-.05l.24.05h.07l.05-.05h.05v.05l.22-.07.05.02h.05l.36-.02.15.02.41-.02h.58l.19-.05.05.05.12-.05.7.05-.05.02v.05h.05l.12-.12h.05v.07l.15-.07h.17l.05.05.05-.05h.31v.07h.05l.27-.12.24.05.89-.1.05.05h.05l.19-.05h.12l.05.05.05-.05h.27c.08,0,.15.1.19.31.1,0,.17.05.22.14l-.02.05v.12h.02l.05-.05h.05c0,.13.03.19.1.19.1,0,.15.09.15.27h.02v-.1h.05c.23.5.41.75.56.75l-.05.02v.05c.06,0,.1.05.1.14.08,0,.12.06.12.17h.05l-.05.05v.05l.41.46h-.02l.27.41-.05.05.27.31.05-.05.6.87v.05l-.05.05v.05c.15,0,.27.13.36.39h.05l.02-.02.05.02v.05h-.05l.56.82.15.15h.05l-.05.05v.1c.08,0,.19.1.31.31.15.18.22.33.22.46l.05-.05h.05l.92,1.35c0,.06.04.1.12.1l.41.63c0,.06.2.34.6.82l.22.46h.05v-.1h.05c0,.14.27.62.82,1.42l.22.36-.05.02c.06,0,.25.23.56.7l-.05.12.05-.05h.05l.41.56v.1l-.05.05v.05h.05l.05-.05h.05c0,.06.1.2.31.41.19.34.4.62.63.85,0,.1.09.23.27.41l.1.19c.18,0,.27-.14.27-.41l.05-.05-.07-.63.02-.05v-.05l-.02-.05v-.05l.02-.36h-.02l.07-.36-.05-.19h.05l-.05-.02v-.46h.1v-.15l-.1-.12h.1c0-.16-.03-.24-.1-.24l.05-.05v-.41h.1v-.12h-.1l.14-.34c-.1,0-.14-.04-.14-.12l.05-.05-.1-.41.05-.05-.05-.22v-.1l.1-.36-.05.05h-.07v-.41l.02-.05-.07-.56h.05l-.05-.05.07-.31-.02-.17v-.05l.02-.05-.02-.05v-.17l.02-.05v-.05h-.07v-.05l.07-.19-.02-.02h.02l-.07-.15.07-.6-.02-.43h.02c.1,0,.14-.03.14-.1-.11,0-.17-.03-.17-.1h.02l-.02-.05v-.12l.02-.19-.02-.19v-.12l.12.1v-.05l-.1-.1v-.1c.1,0,.14-.07.14-.22h-.1v.05l.05.05v.02h-.1v-.17l.1-.1.05.05.05-.05v-.05c-.14,0-.22-.04-.22-.12l.02-.05-.02-.05v-.24l.07-.07-.05-.05v-.05l.05-.19h-.05l.05-.02v-.05l-.05-.19.05-.17ZM150.94,71.24h.19l.05.17-.05.05s.1.12.17.36h-.17l.05.05v.1l-.1.07h-.05l-.05-.22.05-.05-.05-.05h-.05l.05-.12-.05-.36ZM151.13,41.1s.06.09.17.12v-.02l-.12-.1h-.05ZM170.53,41.97l.05.02h.05l.1-.07h-.15l-.05.05ZM170.58,42.55l.1.1h.05v-.1h-.15ZM177.48,41c0-.1-.03-.14-.1-.14-.05,0-.07.06-.07.19h-.1l.14.15.07-.1-.05-.05v-.05h.1ZM177.94,57.23v.14h.1v-.14h-.1ZM178.16,57.28v.05l.05.12h-.07v.05l.07.1.19-.1v-.12l-.05.02h-.05l-.05-.12h-.1ZM178.35,59v.14l.05.05h.05v-.05l-.05-.14h-.05ZM178.5,57.18l-.05.22.12.05-.02-.05v-.02l.02-.19h-.07ZM178.55,51.68l.07.1.05-.05v-.05h-.12ZM178.62,56.15l-.05.12v.05h.05l.05-.12v-.05h-.05ZM178.62,58.46l.1.1h.05l-.1-.1h-.05ZM178.93,58l.1.1v.05h-.1v-.15ZM178.98,57.28l.05.05h.05v-.14l-.1.1ZM179.03,57.81h.05l.05.15-.05.05h-.05v-.19ZM179.17,58.56v.02l.05.05-.05.05v.1h.05l.05-.22h-.1ZM179.3,57.81h.1v.1l-.12.14v-.05l.02-.19ZM179.3,59.36v.14l.15-.14h-.15ZM179.49,58.1v.22h-.05l-.05-.17.05-.05h.05ZM179.63,56.19c0,.14-.06.22-.19.22v.05h.1v.05l-.05.05v.05l.05.02h.1v-.02l-.05-.14.12.1.05-.14s-.07-.07-.07-.22h-.05ZM179.44,57.28h.1v.12h-.1v-.12ZM179.54,56.19l-.05.12h.05l.05-.05v-.07h-.05ZM179.54,51.72v.05l.1-.1v-.05l-.1.1ZM179.63,58.68l-.1.1v.05h.1l.05-.05v-.1h-.05ZM179.68,50.54v.05h.07v-.12l-.07.07ZM179.68,51.72v.05l.07-.1v-.05l-.07.1Z"/>
    <path class="cls-1" d="M197.77,38.2h.44l.43.34h.44l.41-.34v.34l.43-.34h2.13l.46.34h.41v-.34c2.58.52,3.86,1.2,3.86,2.05h.41l.43-.34h.46c1.98.71,3.26,1.74,3.84,3.09h-2.13l.85.68h.84l1.28-.68c3.16,3.72,4.73,7.15,4.73,10.29-.31,3.69-.74,5.87-1.3,6.55l.43.34-.43.34h.43c-1.03,2.75-1.88,4.13-2.56,4.13v.34l.41.34v.34h-.84c-1,2.66-4.29,4.94-9.88,6.86l-1.71.36-1.26-.36-3.86.36c-3.19,0-6.62-1.6-10.29-4.81-2.87-3.19-4.3-6.28-4.3-9.27l.43-.34h-.43l.43-.36-.43-1.71v-.34h.89v-.34h-.89l-.41.34v-1.38l.41-.34v-.34l-.41-.34.41-.36h.43l-.43-.34.89-3.77-.46-.36c.71,0,1.28-1.03,1.71-3.09,3.32-4.35,6.89-6.52,10.72-6.52l-.41-.34v-.34l2.97-.34ZM192.65,57.43c1.46,4.35,3.74,6.52,6.84,6.52,2-.43,3.71-1.46,5.14-3.09l2.15-5.84-.41-.34v-.34l.41-.34-1.3-3.79h.89l-1.74-1.01-.41-.36v-.34h.85v-.68h-.85v.68h-.46l-2.56-1.38-.41.36h-.44l-.43-.36h-.43c-2.35,0-4.35,1.6-5.99,4.81l-.85,5.51ZM193.91,40.25l.43,1.71h.87l-.41-1.71h-.89Z"/>
    <path class="cls-1" d="M241.08,52.09s-.06.02-.1.02h-.58v.31l.29.29h.29l-1.71,6.01.29.29-.58.6h.29l-.58,1.21h.29l-1.42,4.52.29.29c-.39,0-1.14,2.21-2.27,6.62l-.29-.29-.29.29h-3.12l-1.14.29-.87-.29-.29.29h-.27c-.95-.1-1.42-.39-1.42-.89l-1.14-2.1h.27l-2.56-6.62.29-.29v-.31c-.42,0-1.18-2.21-2.27-6.62v-.58h-.58c0-.61-.19-.92-.56-.92l.29-.29v-.31l-.58-.6.29-.29v-.6l-1.13-3,.84-.6h1.14l.29.29h.29v-.89c-.63,0-1.39-.9-2.29-2.71l.29-.31v-.6h-.56l.27-.29v-.29c-.37-.4-.56-1.21-.56-2.42-.39-.05-.67-.65-.85-1.81h-.58l.29-.89.29.29,1.4-.29h1.42l.29.29h.29v-.29l.29.29h.27l2.56-.29c1.29,0,2.05,1.2,2.29,3.6l1.13,3.02h-.58v.6h.58v.29l-.29.31v.29c.76.31,1.13.6,1.13.89l-.29.92.58.6c0,.39-.28.58-.85.58l-.29.31v.29l.85,1.81h-.29l.58,1.5-.29.31.29.29,1.42,3.02,1.14-3.02h-.29l.87-3h.56l3.7.6v-.6l-2.85-1.21,1.42-6.3-.27-.31c.42,0,.88-1.4,1.4-4.2l1.71-.6h1.43l1.42.29,1.71-.29h1.4v.29l-.27.92h.15l.36-1.21,2.56,7.78-.65.68.97.34-.31.34.97,2.03h-.34l.65,1.35-.97.34v.34h.65l.31-.34.97,3.04v.34l-.34.34v.34l.97,1.01.97-.34-.31-.34c.69-2.93,1.22-4.4,1.59-4.4l-.31-1.01.94-2.37h-.31l1.28-5.75v-.34l-.31-.34c.42,0,.63-.79.63-2.37h7.68l.65.68v.34l-1.93,9.13h.34l-1.28,4.06.31,1.35h-.65c-1.27,5.27-2.23,8.53-2.87,9.81h.31c-1.39,4.96-2.24,7.44-2.56,7.44h-.31l-.31-.34-1.59.68h-.34l-.31-.34-1.59.34h-.31l-.34-.34h-.31l-.31.34v-.34l-1.59.34h-.34c-.81-1.63-2.29-6.59-4.47-14.88l-1.55-5.43ZM223.33,47.6v.92c1.9.34,2.85.84,2.85,1.5h.58l.27-.31.29.31h.85v-.31l-.85-1.18-.29.29h-.27c0-.45-.47-.75-1.42-.89l-1.42.29v-.6h-.58ZM240.4,52.11v-.6h-1.98v.6l1.13.31.85-.31Z"/>
    <path class="cls-4" d="M276.25,38.75l.68.68h.68l.68-.68h.65c4.62.5,6.93,1.03,6.93,1.59l.68-.68h.68l1.33,1.33-.65.68c1.34,0,2,.45,2,1.35v.68l-.68.65-1.55,3.12-1.35,1.35-3.36-1.35-.68.68-1.33-1.33-.68.65v-.65c-5.38,1.56-8.07,4.24-8.07,8.04v1.35c0,4.14,3.01,6.6,9.03,7.39l.39-3.72c-1.8.64-2.71.52-2.71-.36v-2.63l.19-3.36.68.65.68-.65h4.52l.65.65.68-.65h2.32c.69,0,1.04,2.91,1.04,8.72l-.68,2h.68l-.68.68v2.03l.68.65v.68c-3.35,2.67-6.03,4.01-8.04,4.01h-4.71c-3.69-.32-7.35-2.33-10.99-6.01-.23-2.24-.89-3.36-2-3.36v-.68l-.68-8.07c1.18-6.86,4.16-11.34,8.96-13.43l.68-.65,3.36-1.35Z"/>
    <path class="cls-4" d="M293.15,37.69l3.45-.1,4.85.58,2.05-.41.7.68.36-.02-.02-.68h.34l1.4.29,1.01-.36.02.34.36,1.04.7-.02.65-.7v-.36c1.85.53,2.79.97,2.8,1.3l.05,1.74,1.01-.02.02.68-2.75.07.02.7,1.71-.05,1.71-.39-.02-.7-.34-.34-.02-.34h.36c1.4.76,2.11,1.42,2.12,2l3.43-.1.02.7-9.32-.1-2.75.07-.36-.34-.34.36-5.19-.56-.34.34-.34.02c-2.37-.4-6.05-.54-11.04-.41l-.02-.34,2.08-.05.31-1.06-.39-2.05,1.67-1.43ZM294.02,44.24l.36.34,1.71-.05c6.22-.11,9.32.03,9.32.44l1.71-.39,3.82-.1.34.34.34-.36,3.79-.1.36.34.34-.02.31-1.04c1.05-.02,2.02,1.92,2.92,5.8l.05,2.08c.11,3.91-1.64,7.18-5.27,9.81l5.43,9.85.02.36-8.98.22c-1.37.05-2.55-1.3-3.55-4.03-1.06-3.2-2.37-4.78-3.91-4.73-.47.02-.8.72-.99,2.1l.34-.02-.58,3.48.34.34.02,1.04-.34.34.02.36.34.31-.34.02.36.34.02.68-9.66.27-.1-3.12.31-1.74-.36-.31.34-.36-.7.02.63-2.44h-.34l.65-1.74-.36-.34v-.34l.34-.36-.02-.34-.34-.34.53-5.53-.36-.34.29-2.42-.14-5.53c-.03-1.27.29-2.2.97-2.78ZM292.21,40.83v.34l1.38-.05v-.34l-1.38.05ZM292.86,39.77l1.04-.02-.02-.7-.34.02-.68.7ZM302.19,52.64l.34.34h-.34l.36.34.02.7-.34.34v.36l2.42.27,2.08-.05.36.34h.34c-.02-.47.67-.83,2.05-1.09l.97-2.8c-.07-2.3-1.94-3.41-5.63-3.31l-1.71.05c-.52.02-.82,1.52-.92,4.52ZM304.8,72.93l1.38-.02v.34l-1.38.02v-.34ZM306.85,72.88l2.78-.07v.34l-2.75.07-.02-.34ZM308.44,41.1l-.31,1.04.34.34.36-.02,1.01-.36-1.06-1.01-.34.02ZM312.55,39.6l.7.68v.34l-.7-.68v-.34ZM317.21,72.59l2.75-.07.02.7-2.78-.27v-.36Z"/>
    <path class="cls-4" d="M337.84,38.2h.44l.43.34h.43l.41-.34v.34l.43-.34h2.12l.46.34h.41v-.34c2.58.52,3.86,1.2,3.86,2.05h.41l.44-.34h.46c1.98.71,3.26,1.74,3.84,3.09h-2.12l.84.68h.85l1.28-.68c3.16,3.72,4.73,7.15,4.73,10.29-.31,3.69-.74,5.87-1.3,6.55l.43.34-.43.34h.43c-1.03,2.75-1.88,4.13-2.56,4.13v.34l.41.34v.34h-.85c-1,2.66-4.29,4.94-9.88,6.86l-1.71.36-1.26-.36-3.86.36c-3.19,0-6.62-1.6-10.29-4.81-2.87-3.19-4.3-6.28-4.3-9.27l.43-.34h-.43l.43-.36-.43-1.71v-.34h.89v-.34h-.89l-.41.34v-1.38l.41-.34v-.34l-.41-.34.41-.36h.43l-.43-.34.89-3.77-.46-.36c.71,0,1.28-1.03,1.71-3.09,3.32-4.35,6.89-6.52,10.72-6.52l-.41-.34v-.34l2.97-.34ZM332.72,57.43c1.46,4.35,3.74,6.52,6.84,6.52,2-.43,3.71-1.46,5.14-3.09l2.15-5.84-.41-.34v-.34l.41-.34-1.3-3.79h.89l-1.74-1.01-.41-.36v-.34h.85v-.68h-.85v.68h-.46l-2.56-1.38-.41.36h-.43l-.43-.36h-.43c-2.35,0-4.35,1.6-5.99,4.81l-.85,5.51ZM333.97,40.25l.43,1.71h.87l-.41-1.71h-.89Z"/>
    <path class="cls-4" d="M361.03,71.99v.24l-2.32-.48v-.24h.58c1.16,0,1.74.16,1.74.48ZM361.03,70.11l-1.16.48v-.7h1.16v.22ZM364.48,69.89c-.48,0-1.06.54-1.74,1.62l-2.29-.22,1.71-.94-1.13-.7h1.13v-.24l-.56-.22h1.14l.58.22.58-.22.58.7ZM360.95,38.95h3.07l.39.39,1.14-.39.39.39h.39l1.16-.39v.39l.36-.39h.39l2.68.39v1.52l-.39,1.16.39,1.91v2.68l-.39.36.39.39v1.16l-.39.39.39.36v.39l-.39.39.39.39v2.29l-.39.39v.39l-.39-.39-1.91.39h-4.98l-1.91.36-.39-.36v-7.66l-.39-1.52.39-.39v-.39l-.39-1.16.39-.36v-.39l-.39-1.16.39-.39h-.39l.39-1.14ZM362.74,67.76h-.58l-1.13-.46h.58l1.14.46ZM390.01,58.87c-.21,4.59-1.35,7.63-3.43,9.13v-.75h-.39l-.75.75.39.39v.39l-1.55,1.16h-.75l-.39-.39h-.39v.39l.39.36c-1.27,1.03-2.55,1.55-3.84,1.55l-.36-.39h-.39v.77h-3.84c-.63,0-1.01-.52-1.13-1.55h-.39v.39l.39,1.16h-.39l-1.52-.39v.39c-6.89-2.24-10.34-6.58-10.34-13.02v-3.82h1.16l2.66.75-.36-.36v-.39l1.91-.39h3.07l.36.39h.39v-.77h.39v2.29h-.77v.39c.77,0,1.16.89,1.16,2.68h-.77v.39c.77,0,1.16.51,1.16,1.52l3.43,2.29h.77c2.54-1.34,3.82-2.36,3.82-3.07l.77-3.04-.39-2.68.39.39h.39v-.39h-.39c0-1.53,1.66-2.29,4.98-2.29v-.39l-2.68-.39-2.68.77-.39-.39v-.39l.39-.39h.39l.39.39v-1.52h-.39v.75h-.39v-1.52l.39-.39-.77-1.52.77-2.68h-.77v-5.72l.77-.77h.77l1.14.77c0-.52.39-.77,1.16-.77l.36.39c2.04-.19,3.07-.45,3.07-.77,1.79.32,2.68.71,2.68,1.16v.75l-.39.39.39.39-.39,2.68.39,2.68h-.39l.39,1.14-.77,1.91.39-.39h.39v1.16l-.77,1.14h.39v-.36l1.52.36-1.14,1.55.39.39v.36l-.39.39v.39l.39,1.52-.39.39.39.39v.39c0,.45,0,.89-.02,1.33h6.55v.24h-6.55ZM368.22,58.44v.77c-.76,0-1.13.26-1.13.77v.77h.75v-.77c.77,0,1.16-.26,1.16-.77l-.77-.77ZM370.52,63.8l-.39.39v.39l1.16-.39v-.39h-.77ZM381.99,66.1l.77,1.91-.39.39h.39l.39-.39v-.36l-.39-1.55h-.77ZM383.54,39.72l-.39,1.52v.39h.39l.36-1.55v-.36h-.36ZM383.54,44.67l-.39.39v.39l.39.39v-.39l.36-.39v-.39h-.36Z"/>
    <path class="cls-4" d="M394.69,38.75l3.33-.15,4.69.34,2-.39.68.53.34-.02-.02-.56.34-.02.6.22.99-.34v.29l.39.85.65-.02.65-.6-.02-.29c1.8.39,2.71.72,2.73,1.01l.07,1.43.99-.05.02.58-2.66.15.02.56,1.67-.07,1.67-.36-.05-.58-.34-.27-.02-.29.34-.02c1.37.61,2.07,1.15,2.1,1.62l3.33-.15.02.56-9.01.17-2.68.12-.34-.27-.31.31-4.3-.34-.31.31-.34.02c-2.29-.27-5.85-.29-10.68-.05l-.02-.29,2-.1.29-.89-.43-1.71,1.62-1.23ZM393.7,43.42l.39.36,1.79-.1c6.47-.26,9.72-.18,9.73.24l1.04-.46,3.96-.19.39.34.34-.39,3.94-.19.39.34h.36l.29-1.11c1.08-.05,2.14,1.94,3.19,5.97l.12,2.17c.19,4.07-1.56,7.52-5.27,10.34l-2.51.89c-3.83.5-6.55.79-8.16.87-.48.03-.81.77-.97,2.22l.34-.02-.53,3.86.39.36.05,1.06-.34.39.02.36.36.34-.36.02.39.34.02.7-10.05.02-.17-2.75.27-1.81-.36-.34.34-.39-.72.05.6-2.56-.36.02.63-1.84-.39-.34-.02-.36.36-.39-.02-.34-.39-.36.43-5.77-.39-.34.24-2.54-.29-5.75c-.06-1.32.25-2.3.94-2.95ZM393.83,41.41l.02.29,1.33-.07-.02-.29-1.33.07ZM394.45,40.52l.99-.07-.02-.56h-.34l-.63.63ZM402.42,51.99l.36.36h-.34l.36.34.05.72-.36.39.02.36,2.54.22,1.42-.1.36.34.36-.02c-.02-.47.68-.86,2.1-1.18l.94-2.92c-.11-2.4-1.84-3.5-5.19-3.31l-1.79.1c-.55.02-.83,1.59-.85,4.71ZM408.78,41.19l-.29.89.34.27.34-.02.99-.34-1.04-.8h-.34ZM412.71,39.84l.7.56v.29l-.68-.56-.02-.29Z"/>
  </g>
  <g id="Logomark">
    <g>
      <path class="cls-4" d="M51.37,104.72c-.43,0-.86,0-1.22-.18l-41.64-23.11c-.79-.43-1.28-1.28-1.28-2.2v-46.29c0-.92.49-1.77,1.35-2.2L50.2,7.74c.79-.43,1.71-.43,2.45,0l41.7,22.93c.79.43,1.35,1.28,1.35,2.2v46.41c0,.92-.49,1.77-1.35,2.2l-41.77,22.93c-.37.18-.79.31-1.22.31h0ZM51.43,8.04c-.31,0-.61.06-.92.24L8.81,31.22c-.61.37-.98.98-.98,1.71v46.29c0,.67.37,1.35.98,1.71l41.7,23.11c.61.31,1.28.31,1.83,0l41.77-22.93c.61-.37.98-.98.98-1.71v-46.47c0-.67-.37-1.35-.98-1.71L52.34,8.29c-.31-.18-.61-.24-.92-.24Z"/>
      <g>
        <path class="cls-2" d="M51.3,112.24c-.61,0-1.28-.18-1.83-.49L1.96,85.58c-1.22-.67-1.96-1.9-1.96-3.3V29.75c0-1.35.73-2.63,1.96-3.3L49.53.46c1.16-.61,2.51-.61,3.61,0l47.57,26.05c1.22.67,1.96,1.9,1.96,3.3v52.65c0,1.35-.73,2.63-1.96,3.3l-47.64,26.05c-.55.31-1.1.43-1.77.43h0ZM51.37,2.42c-.24,0-.41.05-.61.18L3.12,28.65c-.43.24-.67.67-.67,1.16v52.53c0,.49.24.92.67,1.16l47.51,26.17c.43.24.86.24,1.28,0l47.64-26.05c.43-.24.67-.67.67-1.16V29.75c0-.49-.24-.92-.67-1.16L51.98,2.6c-.18-.12-.43-.18-.61-.18Z"/>
        <polygon class="cls-3" points="47.64 48.34 51.92 52.68 56.14 48.34 68.06 48.34 62.07 42.41 69.4 35.01 63.35 29.5 55.1 37.21 55.1 19.97 50.2 15.26 45.25 20.21 45.25 36.72 37.42 29.69 31.55 35.38 40.11 42.53 34.92 48.28 47.64 48.34"/>
        <polygon class="cls-4" points="15.53 53.66 11.19 57.88 15.53 62.1 15.53 74.02 21.4 68.03 28.86 75.37 34.37 69.31 26.66 61.06 43.91 61.06 48.61 56.17 43.66 51.21 27.15 51.21 34.18 43.39 28.5 37.52 21.34 46.14 15.59 40.94 15.53 53.66"/>
        <polygon class="cls-4" points="88.36 59.28 92.7 55 88.36 50.78 88.36 38.86 82.43 44.85 75.03 37.52 69.47 43.57 77.17 51.82 59.99 51.82 55.28 56.72 60.23 61.67 76.74 61.67 69.65 69.5 75.4 75.37 82.55 66.81 88.3 72 88.36 59.28"/>
        <polygon class="cls-4" points="54.73 64.54 50.45 60.2 46.23 64.54 34.3 64.54 40.3 70.41 32.96 77.87 39.01 83.38 47.27 75.67 47.27 92.86 52.16 97.63 57.11 92.67 57.11 76.1 64.94 83.19 70.81 77.51 62.25 70.35 67.45 64.6 54.73 64.54"/>
      </g>
    </g>
  </g>
</svg>